<?xml version="1.0" encoding="UTF-8" standalone="no"?>
<!DOCTYPE svg PUBLIC "-//W3C//DTD SVG 1.1//EN"
 "http://www.w3.org/Graphics/SVG/1.1/DTD/svg11.dtd">
<!-- Generated by graphviz version 2.50.0 (0)
 -->
<!-- Pages: 1 -->
<svg width="1335pt" height="156pt"
 viewBox="0.00 0.00 1335.00 156.00" xmlns="http://www.w3.org/2000/svg" xmlns:xlink="http://www.w3.org/1999/xlink">
<g id="graph0" class="graph" transform="scale(1 1) rotate(0) translate(4 152)">
<polygon fill="white" stroke="transparent" points="-4,4 -4,-152 1331,-152 1331,4 -4,4"/>
<!-- 4768360464 -->
<g id="node1" class="node">
<title>4768360464</title>
<polygon fill="none" stroke="black" points="0,-111.5 0,-147.5 110,-147.5 110,-111.5 0,-111.5"/>
<text text-anchor="middle" x="11.5" y="-125.8" font-family="Times,serif" font-size="14.00">c</text>
<polyline fill="none" stroke="black" points="23,-111.5 23,-147.5 "/>
<text text-anchor="middle" x="66.5" y="-125.8" font-family="Times,serif" font-size="14.00">data 10.0000</text>
</g>
<!-- 4768360608+ -->
<g id="node8" class="node">
<title>4768360608+</title>
<ellipse fill="none" stroke="black" cx="173" cy="-101.5" rx="27" ry="18"/>
<text text-anchor="middle" x="173" y="-97.8" font-family="Times,serif" font-size="14.00">+</text>
</g>
<!-- 4768360464&#45;&gt;4768360608+ -->
<g id="edge12" class="edge">
<title>4768360464&#45;&gt;4768360608+</title>
<path fill="none" stroke="black" d="M110.26,-116.4C119.49,-114.18 128.84,-111.92 137.37,-109.86"/>
<polygon fill="black" stroke="black" points="138.42,-113.21 147.32,-107.46 136.78,-106.4 138.42,-113.21"/>
</g>
<!-- 4767777328 -->
<g id="node2" class="node">
<title>4767777328</title>
<polygon fill="none" stroke="black" points="3.5,-56.5 3.5,-92.5 106.5,-92.5 106.5,-56.5 3.5,-56.5"/>
<text text-anchor="middle" x="15" y="-70.8" font-family="Times,serif" font-size="14.00">a</text>
<polyline fill="none" stroke="black" points="26.5,-56.5 26.5,-92.5 "/>
<text text-anchor="middle" x="66.5" y="-70.8" font-family="Times,serif" font-size="14.00">data 2.0000</text>
</g>
<!-- 4768360512* -->
<g id="node4" class="node">
<title>4768360512*</title>
<ellipse fill="none" stroke="black" cx="173" cy="-46.5" rx="27" ry="18"/>
<text text-anchor="middle" x="173" y="-42.8" font-family="Times,serif" font-size="14.00">*</text>
</g>
<!-- 4767777328&#45;&gt;4768360512* -->
<g id="edge15" class="edge">
<title>4767777328&#45;&gt;4768360512*</title>
<path fill="none" stroke="black" d="M106.54,-62.3C117.05,-59.76 127.9,-57.14 137.66,-54.79"/>
<polygon fill="black" stroke="black" points="138.49,-58.19 147.39,-52.44 136.85,-51.38 138.49,-58.19"/>
</g>
<!-- 4767777328&#45;&gt;4768360608+ -->
<g id="edge10" class="edge">
<title>4767777328&#45;&gt;4768360608+</title>
<path fill="none" stroke="black" d="M106.54,-86.26C116.94,-88.69 127.67,-91.18 137.36,-93.44"/>
<polygon fill="black" stroke="black" points="136.86,-96.91 147.39,-95.77 138.44,-90.1 136.86,-96.91"/>
</g>
<!-- 4768360512 -->
<g id="node3" class="node">
<title>4768360512</title>
<polygon fill="none" stroke="black" points="382,-28.5 382,-64.5 490,-64.5 490,-28.5 382,-28.5"/>
<text text-anchor="middle" x="393.5" y="-42.8" font-family="Times,serif" font-size="14.00">d</text>
<polyline fill="none" stroke="black" points="405,-28.5 405,-64.5 "/>
<text text-anchor="middle" x="447.5" y="-42.8" font-family="Times,serif" font-size="14.00">data &#45;6.0000</text>
</g>
<!-- 4768360560* -->
<g id="node6" class="node">
<title>4768360560*</title>
<ellipse fill="none" stroke="black" cx="689" cy="-73.5" rx="27" ry="18"/>
<text text-anchor="middle" x="689" y="-69.8" font-family="Times,serif" font-size="14.00">*</text>
</g>
<!-- 4768360512&#45;&gt;4768360560* -->
<g id="edge16" class="edge">
<title>4768360512&#45;&gt;4768360560*</title>
<path fill="none" stroke="black" d="M490.23,-52.23C538.92,-57.46 609.62,-65.07 651.98,-69.63"/>
<polygon fill="black" stroke="black" points="651.79,-73.12 662.11,-70.71 652.54,-66.17 651.79,-73.12"/>
</g>
<!-- 4768360512*&#45;&gt;4768360512 -->
<g id="edge1" class="edge">
<title>4768360512*&#45;&gt;4768360512</title>
<path fill="none" stroke="black" d="M200.46,-46.5C240.27,-46.5 316.75,-46.5 371.55,-46.5"/>
<polygon fill="black" stroke="black" points="371.86,-50 381.86,-46.5 371.86,-43 371.86,-50"/>
</g>
<!-- 4768360560 -->
<g id="node5" class="node">
<title>4768360560</title>
<polygon fill="none" stroke="black" points="752,-55.5 752,-91.5 857,-91.5 857,-55.5 752,-55.5"/>
<text text-anchor="middle" x="762" y="-69.8" font-family="Times,serif" font-size="14.00"> </text>
<polyline fill="none" stroke="black" points="772,-55.5 772,-91.5 "/>
<text text-anchor="middle" x="814.5" y="-69.8" font-family="Times,serif" font-size="14.00">data &#45;0.5000</text>
</g>
<!-- 4768360704**2 -->
<g id="node12" class="node">
<title>4768360704**2</title>
<ellipse fill="none" stroke="black" cx="920" cy="-73.5" rx="27" ry="18"/>
<text text-anchor="middle" x="920" y="-69.8" font-family="Times,serif" font-size="14.00">**2</text>
</g>
<!-- 4768360560&#45;&gt;4768360704**2 -->
<g id="edge8" class="edge">
<title>4768360560&#45;&gt;4768360704**2</title>
<path fill="none" stroke="black" d="M857.27,-73.5C865.8,-73.5 874.49,-73.5 882.55,-73.5"/>
<polygon fill="black" stroke="black" points="882.72,-77 892.72,-73.5 882.72,-70 882.72,-77"/>
</g>
<!-- 4768360560*&#45;&gt;4768360560 -->
<g id="edge2" class="edge">
<title>4768360560*&#45;&gt;4768360560</title>
<path fill="none" stroke="black" d="M716.04,-73.5C723.74,-73.5 732.53,-73.5 741.49,-73.5"/>
<polygon fill="black" stroke="black" points="741.63,-77 751.63,-73.5 741.63,-70 741.63,-77"/>
</g>
<!-- 4768360608 -->
<g id="node7" class="node">
<title>4768360608</title>
<polygon fill="none" stroke="black" points="236,-83.5 236,-119.5 346,-119.5 346,-83.5 236,-83.5"/>
<text text-anchor="middle" x="247.5" y="-97.8" font-family="Times,serif" font-size="14.00">e</text>
<polyline fill="none" stroke="black" points="259,-83.5 259,-119.5 "/>
<text text-anchor="middle" x="302.5" y="-97.8" font-family="Times,serif" font-size="14.00">data 12.0000</text>
</g>
<!-- 4767779008**&#45;1 -->
<g id="node10" class="node">
<title>4767779008**&#45;1</title>
<ellipse fill="none" stroke="black" cx="436" cy="-101.5" rx="27" ry="18"/>
<text text-anchor="middle" x="436" y="-97.8" font-family="Times,serif" font-size="14.00">**&#45;1</text>
</g>
<!-- 4768360608&#45;&gt;4767779008**&#45;1 -->
<g id="edge13" class="edge">
<title>4768360608&#45;&gt;4767779008**&#45;1</title>
<path fill="none" stroke="black" d="M346.06,-101.5C363.71,-101.5 382.87,-101.5 398.87,-101.5"/>
<polygon fill="black" stroke="black" points="398.88,-105 408.88,-101.5 398.88,-98 398.88,-105"/>
</g>
<!-- 4768360608+&#45;&gt;4768360608 -->
<g id="edge3" class="edge">
<title>4768360608+&#45;&gt;4768360608</title>
<path fill="none" stroke="black" d="M200.03,-101.5C207.7,-101.5 216.45,-101.5 225.42,-101.5"/>
<polygon fill="black" stroke="black" points="225.58,-105 235.58,-101.5 225.58,-98 225.58,-105"/>
</g>
<!-- 4767779008 -->
<g id="node9" class="node">
<title>4767779008</title>
<polygon fill="none" stroke="black" points="526,-81.5 526,-117.5 626,-117.5 626,-81.5 526,-81.5"/>
<text text-anchor="middle" x="536" y="-95.8" font-family="Times,serif" font-size="14.00"> </text>
<polyline fill="none" stroke="black" points="546,-81.5 546,-117.5 "/>
<text text-anchor="middle" x="586" y="-95.8" font-family="Times,serif" font-size="14.00">data 0.0833</text>
</g>
<!-- 4767779008&#45;&gt;4768360560* -->
<g id="edge14" class="edge">
<title>4767779008&#45;&gt;4768360560*</title>
<path fill="none" stroke="black" d="M626.01,-88.02C635.28,-85.85 644.79,-83.62 653.49,-81.58"/>
<polygon fill="black" stroke="black" points="654.34,-84.98 663.28,-79.29 652.74,-78.16 654.34,-84.98"/>
</g>
<!-- 4767779008**&#45;1&#45;&gt;4767779008 -->
<g id="edge4" class="edge">
<title>4767779008**&#45;1&#45;&gt;4767779008</title>
<path fill="none" stroke="black" d="M463.28,-101.12C478.19,-100.9 497.49,-100.62 515.85,-100.36"/>
<polygon fill="black" stroke="black" points="515.96,-103.86 525.91,-100.21 515.86,-96.86 515.96,-103.86"/>
</g>
<!-- 4768360704 -->
<g id="node11" class="node">
<title>4768360704</title>
<polygon fill="none" stroke="black" points="986.5,-55.5 986.5,-91.5 1087.5,-91.5 1087.5,-55.5 986.5,-55.5"/>
<text text-anchor="middle" x="997" y="-69.8" font-family="Times,serif" font-size="14.00">f</text>
<polyline fill="none" stroke="black" points="1007.5,-55.5 1007.5,-91.5 "/>
<text text-anchor="middle" x="1047.5" y="-69.8" font-family="Times,serif" font-size="14.00">data 0.2500</text>
</g>
<!-- 4768360896* -->
<g id="node15" class="node">
<title>4768360896*</title>
<ellipse fill="none" stroke="black" cx="1154" cy="-45.5" rx="27" ry="18"/>
<text text-anchor="middle" x="1154" y="-41.8" font-family="Times,serif" font-size="14.00">*</text>
</g>
<!-- 4768360704&#45;&gt;4768360896* -->
<g id="edge9" class="edge">
<title>4768360704&#45;&gt;4768360896*</title>
<path fill="none" stroke="black" d="M1087.77,-61.38C1098.11,-58.86 1108.8,-56.26 1118.45,-53.91"/>
<polygon fill="black" stroke="black" points="1119.56,-57.24 1128.45,-51.48 1117.9,-50.44 1119.56,-57.24"/>
</g>
<!-- 4768360704**2&#45;&gt;4768360704 -->
<g id="edge5" class="edge">
<title>4768360704**2&#45;&gt;4768360704</title>
<path fill="none" stroke="black" d="M947.1,-73.5C955.84,-73.5 965.99,-73.5 976.23,-73.5"/>
<polygon fill="black" stroke="black" points="976.46,-77 986.46,-73.5 976.46,-70 976.46,-77"/>
</g>
<!-- 4768360848 -->
<g id="node13" class="node">
<title>4768360848</title>
<polygon fill="none" stroke="black" points="983,-0.5 983,-36.5 1091,-36.5 1091,-0.5 983,-0.5"/>
<text text-anchor="middle" x="994.5" y="-14.8" font-family="Times,serif" font-size="14.00">g</text>
<polyline fill="none" stroke="black" points="1006,-0.5 1006,-36.5 "/>
<text text-anchor="middle" x="1048.5" y="-14.8" font-family="Times,serif" font-size="14.00">data &#45;2.0000</text>
</g>
<!-- 4768360848&#45;&gt;4768360896* -->
<g id="edge7" class="edge">
<title>4768360848&#45;&gt;4768360896*</title>
<path fill="none" stroke="black" d="M1091.12,-30.97C1100.33,-33.13 1109.68,-35.33 1118.24,-37.34"/>
<polygon fill="black" stroke="black" points="1117.68,-40.8 1128.21,-39.68 1119.28,-33.99 1117.68,-40.8"/>
</g>
<!-- 4768360896 -->
<g id="node14" class="node">
<title>4768360896</title>
<polygon fill="none" stroke="black" points="1217,-27.5 1217,-63.5 1327,-63.5 1327,-27.5 1217,-27.5"/>
<text text-anchor="middle" x="1229.5" y="-41.8" font-family="Times,serif" font-size="14.00">L</text>
<polyline fill="none" stroke="black" points="1242,-27.5 1242,-63.5 "/>
<text text-anchor="middle" x="1284.5" y="-41.8" font-family="Times,serif" font-size="14.00">data &#45;0.5000</text>
</g>
<!-- 4768360896*&#45;&gt;4768360896 -->
<g id="edge6" class="edge">
<title>4768360896*&#45;&gt;4768360896</title>
<path fill="none" stroke="black" d="M1181.03,-45.5C1188.7,-45.5 1197.45,-45.5 1206.42,-45.5"/>
<polygon fill="black" stroke="black" points="1206.58,-49 1216.58,-45.5 1206.58,-42 1206.58,-49"/>
</g>
<!-- 4768360416 -->
<g id="node16" class="node">
<title>4768360416</title>
<polygon fill="none" stroke="black" points="1,-1.5 1,-37.5 109,-37.5 109,-1.5 1,-1.5"/>
<text text-anchor="middle" x="12.5" y="-15.8" font-family="Times,serif" font-size="14.00">b</text>
<polyline fill="none" stroke="black" points="24,-1.5 24,-37.5 "/>
<text text-anchor="middle" x="66.5" y="-15.8" font-family="Times,serif" font-size="14.00">data &#45;3.0000</text>
</g>
<!-- 4768360416&#45;&gt;4768360512* -->
<g id="edge11" class="edge">
<title>4768360416&#45;&gt;4768360512*</title>
<path fill="none" stroke="black" d="M109.25,-31.89C118.75,-34.11 128.43,-36.36 137.24,-38.41"/>
<polygon fill="black" stroke="black" points="136.6,-41.85 147.14,-40.71 138.19,-35.04 136.6,-41.85"/>
</g>
</g>
</svg>
