<?xml version="1.0" encoding="UTF-8" standalone="no"?>
<!DOCTYPE svg PUBLIC "-//W3C//DTD SVG 1.1//EN"
 "http://www.w3.org/Graphics/SVG/1.1/DTD/svg11.dtd">
<!-- Generated by graphviz version 2.50.0 (0)
 -->
<!-- Pages: 1 -->
<svg width="838pt" height="155pt"
 viewBox="0.00 0.00 838.00 155.00" xmlns="http://www.w3.org/2000/svg" xmlns:xlink="http://www.w3.org/1999/xlink">
<g id="graph0" class="graph" transform="scale(1 1) rotate(0) translate(4 151)">
<polygon fill="white" stroke="transparent" points="-4,4 -4,-151 834,-151 834,4 -4,4"/>
<!-- 4623127168 -->
<g id="node1" class="node">
<title>4623127168</title>
<polygon fill="none" stroke="black" points="711,-81.5 711,-117.5 830,-117.5 830,-81.5 711,-81.5"/>
<text text-anchor="middle" x="723.5" y="-95.8" font-family="Times,serif" font-size="14.00">L</text>
<polyline fill="none" stroke="black" points="736,-81.5 736,-117.5 "/>
<text text-anchor="middle" x="783" y="-95.8" font-family="Times,serif" font-size="14.00">data 144.0000</text>
</g>
<!-- 4623127168* -->
<g id="node2" class="node">
<title>4623127168*</title>
<ellipse fill="none" stroke="black" cx="648" cy="-99.5" rx="27" ry="18"/>
<text text-anchor="middle" x="648" y="-95.8" font-family="Times,serif" font-size="14.00">*</text>
</g>
<!-- 4623127168*&#45;&gt;4623127168 -->
<g id="edge1" class="edge">
<title>4623127168*&#45;&gt;4623127168</title>
<path fill="none" stroke="black" d="M675.15,-99.5C682.79,-99.5 691.53,-99.5 700.53,-99.5"/>
<polygon fill="black" stroke="black" points="700.76,-103 710.76,-99.5 700.76,-96 700.76,-103"/>
</g>
<!-- 4623120048 -->
<g id="node3" class="node">
<title>4623120048</title>
<polygon fill="none" stroke="black" points="237,-82.5 237,-118.5 345,-118.5 345,-82.5 237,-82.5"/>
<text text-anchor="middle" x="248.5" y="-96.8" font-family="Times,serif" font-size="14.00">d</text>
<polyline fill="none" stroke="black" points="260,-82.5 260,-118.5 "/>
<text text-anchor="middle" x="302.5" y="-96.8" font-family="Times,serif" font-size="14.00">data &#45;6.0000</text>
</g>
<!-- 4623126880* -->
<g id="node11" class="node">
<title>4623126880*</title>
<ellipse fill="none" stroke="black" cx="409" cy="-72.5" rx="27" ry="18"/>
<text text-anchor="middle" x="409" y="-68.8" font-family="Times,serif" font-size="14.00">*</text>
</g>
<!-- 4623120048&#45;&gt;4623126880* -->
<g id="edge8" class="edge">
<title>4623120048&#45;&gt;4623126880*</title>
<path fill="none" stroke="black" d="M345.25,-87.65C354.84,-85.33 364.6,-82.98 373.48,-80.83"/>
<polygon fill="black" stroke="black" points="374.54,-84.18 383.43,-78.43 372.89,-77.37 374.54,-84.18"/>
</g>
<!-- 4623120048* -->
<g id="node4" class="node">
<title>4623120048*</title>
<ellipse fill="none" stroke="black" cx="173" cy="-100.5" rx="27" ry="18"/>
<text text-anchor="middle" x="173" y="-96.8" font-family="Times,serif" font-size="14.00">*</text>
</g>
<!-- 4623120048*&#45;&gt;4623120048 -->
<g id="edge2" class="edge">
<title>4623120048*&#45;&gt;4623120048</title>
<path fill="none" stroke="black" d="M200.03,-100.5C208.08,-100.5 217.32,-100.5 226.74,-100.5"/>
<polygon fill="black" stroke="black" points="226.99,-104 236.99,-100.5 226.99,-97 226.99,-104"/>
</g>
<!-- 4623118704 -->
<g id="node5" class="node">
<title>4623118704</title>
<polygon fill="none" stroke="black" points="3.5,-55.5 3.5,-91.5 106.5,-91.5 106.5,-55.5 3.5,-55.5"/>
<text text-anchor="middle" x="15" y="-69.8" font-family="Times,serif" font-size="14.00">a</text>
<polyline fill="none" stroke="black" points="26.5,-55.5 26.5,-91.5 "/>
<text text-anchor="middle" x="66.5" y="-69.8" font-family="Times,serif" font-size="14.00">data 2.0000</text>
</g>
<!-- 4623118704&#45;&gt;4623120048* -->
<g id="edge10" class="edge">
<title>4623118704&#45;&gt;4623120048*</title>
<path fill="none" stroke="black" d="M106.54,-85.26C116.94,-87.69 127.67,-90.18 137.36,-92.44"/>
<polygon fill="black" stroke="black" points="136.86,-95.91 147.39,-94.77 138.44,-89.1 136.86,-95.91"/>
</g>
<!-- 4623117552+ -->
<g id="node8" class="node">
<title>4623117552+</title>
<ellipse fill="none" stroke="black" cx="173" cy="-45.5" rx="27" ry="18"/>
<text text-anchor="middle" x="173" y="-41.8" font-family="Times,serif" font-size="14.00">+</text>
</g>
<!-- 4623118704&#45;&gt;4623117552+ -->
<g id="edge7" class="edge">
<title>4623118704&#45;&gt;4623117552+</title>
<path fill="none" stroke="black" d="M106.54,-61.3C117.05,-58.76 127.9,-56.14 137.66,-53.79"/>
<polygon fill="black" stroke="black" points="138.49,-57.19 147.39,-51.44 136.85,-50.38 138.49,-57.19"/>
</g>
<!-- 4623121584 -->
<g id="node6" class="node">
<title>4623121584</title>
<polygon fill="none" stroke="black" points="0,-0.5 0,-36.5 110,-36.5 110,-0.5 0,-0.5"/>
<text text-anchor="middle" x="11.5" y="-14.8" font-family="Times,serif" font-size="14.00">c</text>
<polyline fill="none" stroke="black" points="23,-0.5 23,-36.5 "/>
<text text-anchor="middle" x="66.5" y="-14.8" font-family="Times,serif" font-size="14.00">data 10.0000</text>
</g>
<!-- 4623121584&#45;&gt;4623117552+ -->
<g id="edge5" class="edge">
<title>4623121584&#45;&gt;4623117552+</title>
<path fill="none" stroke="black" d="M110.26,-31.13C119.49,-33.28 128.84,-35.45 137.37,-37.44"/>
<polygon fill="black" stroke="black" points="136.79,-40.9 147.32,-39.76 138.38,-34.08 136.79,-40.9"/>
</g>
<!-- 4623117552 -->
<g id="node7" class="node">
<title>4623117552</title>
<polygon fill="none" stroke="black" points="236,-27.5 236,-63.5 346,-63.5 346,-27.5 236,-27.5"/>
<text text-anchor="middle" x="247.5" y="-41.8" font-family="Times,serif" font-size="14.00">e</text>
<polyline fill="none" stroke="black" points="259,-27.5 259,-63.5 "/>
<text text-anchor="middle" x="302.5" y="-41.8" font-family="Times,serif" font-size="14.00">data 12.0000</text>
</g>
<!-- 4623117552&#45;&gt;4623126880* -->
<g id="edge11" class="edge">
<title>4623117552&#45;&gt;4623126880*</title>
<path fill="none" stroke="black" d="M346.26,-58.13C355.49,-60.28 364.84,-62.45 373.37,-64.44"/>
<polygon fill="black" stroke="black" points="372.79,-67.9 383.32,-66.76 374.38,-61.08 372.79,-67.9"/>
</g>
<!-- 4623117552+&#45;&gt;4623117552 -->
<g id="edge3" class="edge">
<title>4623117552+&#45;&gt;4623117552</title>
<path fill="none" stroke="black" d="M200.03,-45.5C207.7,-45.5 216.45,-45.5 225.42,-45.5"/>
<polygon fill="black" stroke="black" points="225.58,-49 235.58,-45.5 225.58,-42 225.58,-49"/>
</g>
<!-- 4623126352 -->
<g id="node9" class="node">
<title>4623126352</title>
<polygon fill="none" stroke="black" points="474.5,-109.5 474.5,-145.5 582.5,-145.5 582.5,-109.5 474.5,-109.5"/>
<text text-anchor="middle" x="486" y="-123.8" font-family="Times,serif" font-size="14.00">g</text>
<polyline fill="none" stroke="black" points="497.5,-109.5 497.5,-145.5 "/>
<text text-anchor="middle" x="540" y="-123.8" font-family="Times,serif" font-size="14.00">data &#45;2.0000</text>
</g>
<!-- 4623126352&#45;&gt;4623127168* -->
<g id="edge6" class="edge">
<title>4623126352&#45;&gt;4623127168*</title>
<path fill="none" stroke="black" d="M582.75,-114.81C592.81,-112.41 603.08,-109.97 612.38,-107.75"/>
<polygon fill="black" stroke="black" points="613.49,-111.08 622.4,-105.36 611.86,-104.27 613.49,-111.08"/>
</g>
<!-- 4623126880 -->
<g id="node10" class="node">
<title>4623126880</title>
<polygon fill="none" stroke="black" points="472,-54.5 472,-90.5 585,-90.5 585,-54.5 472,-54.5"/>
<text text-anchor="middle" x="482.5" y="-68.8" font-family="Times,serif" font-size="14.00">f</text>
<polyline fill="none" stroke="black" points="493,-54.5 493,-90.5 "/>
<text text-anchor="middle" x="539" y="-68.8" font-family="Times,serif" font-size="14.00">data &#45;72.0000</text>
</g>
<!-- 4623126880&#45;&gt;4623127168* -->
<g id="edge12" class="edge">
<title>4623126880&#45;&gt;4623127168*</title>
<path fill="none" stroke="black" d="M585.15,-85.29C594.43,-87.42 603.81,-89.58 612.37,-91.54"/>
<polygon fill="black" stroke="black" points="611.8,-95 622.33,-93.83 613.37,-88.18 611.8,-95"/>
</g>
<!-- 4623126880*&#45;&gt;4623126880 -->
<g id="edge4" class="edge">
<title>4623126880*&#45;&gt;4623126880</title>
<path fill="none" stroke="black" d="M436.08,-72.5C443.74,-72.5 452.49,-72.5 461.47,-72.5"/>
<polygon fill="black" stroke="black" points="461.66,-76 471.66,-72.5 461.66,-69 461.66,-76"/>
</g>
<!-- 4623121776 -->
<g id="node12" class="node">
<title>4623121776</title>
<polygon fill="none" stroke="black" points="1,-110.5 1,-146.5 109,-146.5 109,-110.5 1,-110.5"/>
<text text-anchor="middle" x="12.5" y="-124.8" font-family="Times,serif" font-size="14.00">b</text>
<polyline fill="none" stroke="black" points="24,-110.5 24,-146.5 "/>
<text text-anchor="middle" x="66.5" y="-124.8" font-family="Times,serif" font-size="14.00">data &#45;3.0000</text>
</g>
<!-- 4623121776&#45;&gt;4623120048* -->
<g id="edge9" class="edge">
<title>4623121776&#45;&gt;4623120048*</title>
<path fill="none" stroke="black" d="M109.25,-115.65C118.84,-113.33 128.6,-110.98 137.48,-108.83"/>
<polygon fill="black" stroke="black" points="138.54,-112.18 147.43,-106.43 136.89,-105.37 138.54,-112.18"/>
</g>
</g>
</svg>
